<svg width="139" height="20" viewBox="0 0 139 20" fill="none" xmlns="http://www.w3.org/2000/svg">
<path d="M25.3408 0.466797H33.593C37.5303 0.466797 39.9731 2.25537 39.9731 5.211C39.9731 7.3524 38.696 8.95369 36.6336 9.43951C39.1851 9.87376 40.704 11.6895 40.704 14.238C40.704 17.4922 38.071 19.4436 33.7833 19.4436H25.3408V0.466797ZM33.43 8.33218C35.4652 8.33218 36.688 7.38225 36.688 5.78366C36.688 4.18508 35.4652 3.31656 33.43 3.31656H28.5444V8.33218H33.43ZM33.43 16.602C35.9272 16.602 37.4189 15.6249 37.4189 13.8363C37.4189 12.1563 35.9272 11.1521 33.43 11.1521H28.5444V16.602H33.43Z" fill="#1C1460"/>
<path d="M44.2339 0.361328C45.2664 0.361328 46.0517 1.14841 46.0517 2.25847C46.0517 3.3441 45.2637 4.12847 44.2339 4.12847C43.204 4.12847 42.416 3.34139 42.416 2.25847C42.4133 1.14841 43.2013 0.361328 44.2339 0.361328ZM42.685 6.38115H45.78V19.4494H42.685V6.38115Z" fill="#1C1460"/>
<path d="M54.953 4.91602C59.4038 4.91602 62.4716 7.87165 62.4716 12.2359C62.4716 16.573 59.4038 19.5557 54.953 19.5557C50.475 19.5557 47.4072 16.573 47.4072 12.2359C47.4072 7.87165 50.475 4.91602 54.953 4.91602ZM54.953 16.9529C57.5316 16.9529 59.3495 15.0558 59.3495 12.263C59.3495 9.49737 57.5316 7.60024 54.953 7.60024C52.3471 7.60024 50.5293 9.49737 50.5293 12.263C50.5293 15.0558 52.3471 16.9529 54.953 16.9529Z" fill="#1C1460"/>
<path d="M64.0996 5.02459H67.2217V7.89878C68.1999 5.94736 69.9362 4.91602 72.216 4.91602V7.89878C69.3113 7.73593 67.4663 9.44309 67.2217 11.9102V19.4472H64.0996V5.02459Z" fill="#1C1460"/>
<path d="M74.0361 0.466797H82.7775C86.9566 0.466797 89.5651 2.28251 89.5651 5.211C89.5651 7.27098 88.3152 8.87228 86.28 9.38524C88.7228 9.84664 90.2417 11.6895 90.2417 14.1837C90.2417 17.4379 87.5 19.4436 83.0763 19.4436H74.0361V0.466797ZM82.5601 8.11504C84.1605 8.11504 85.1659 7.32797 85.1659 6.00079C85.1659 4.70075 84.1605 3.96795 82.5601 3.96795H78.3266V8.11776H82.5601V8.11504ZM82.5601 15.9506C84.5953 15.9506 85.818 15.1092 85.818 13.6463C85.818 12.2649 84.5953 11.4235 82.5601 11.4235H78.3266V15.9506H82.5601Z" fill="#1C1460"/>
<path d="M97.163 10.6911H101.182V10.4197C101.182 8.87542 100.149 7.97976 98.1412 7.97976C96.8396 7.97976 95.318 8.41401 93.7991 9.25538L92.4948 6.38118C94.6659 5.29555 96.5407 4.70117 99.0922 4.70117C103.002 4.70117 105.255 6.65258 105.282 9.93389L105.309 19.4494H101.212V17.7423C100.233 18.9636 98.6602 19.6394 96.625 19.6394C93.5029 19.6394 91.6035 17.7423 91.6035 15.0852C91.5981 12.344 93.579 10.7183 97.163 10.6911ZM97.7879 16.6539C99.5514 16.6539 100.937 15.704 101.182 14.4583V13.1582H97.8966C96.2962 13.1582 95.5082 13.6468 95.5082 14.8111C95.5082 15.9239 96.375 16.6539 97.7879 16.6539Z" fill="#1C1460"/>
<path d="M107.287 4.86108H111.466V7.4096C112.499 5.59388 114.235 4.72538 116.515 4.69824C119.773 4.69824 121.862 6.86679 121.862 10.2838V19.4492H117.683V11.5024C117.683 9.65957 116.596 8.51966 114.806 8.51966C112.716 8.5468 111.466 10.1182 111.466 12.2624V19.4465H107.287V4.86108Z" fill="#1C1460"/>
<path d="M123.979 0.466797H128.159V10.3894L133.506 4.88531H138.256L132.908 10.498L138.5 19.4463H133.56L130.031 13.5079L128.159 15.4865V19.4436H123.979V0.466797Z" fill="#1C1460"/>
<path d="M8.99406 19.997H0.5V9.62656C7.77131 9.15974 8.99406 15.6002 8.99406 19.997Z" fill="url(#paint0_linear_1567_21779)"/>
<path d="M0.5 9.04871V0H11.8553C12.2629 0 12.6623 0.0434255 13.0482 0.127562C12.9531 0.388113 12.8607 0.659514 12.771 0.944492C9.84999 10.0638 2.22544 9.33911 0.5 9.04871Z" fill="url(#paint1_linear_1567_21779)"/>
<path d="M16.9092 11.7871C17.3004 12.5552 17.5205 13.421 17.5205 14.3384C17.5205 17.4514 14.2435 19.9999 11.1269 19.9999H10.8579C3.97785 6.32644 15.6511 2.45345 16.3548 2.23633C17.0885 3.18897 17.5205 4.37773 17.5205 5.6642C17.5205 7.31165 16.6021 8.80167 15.2734 9.83845C15.9554 10.3541 16.5179 11.0218 16.9092 11.7871Z" fill="url(#paint2_linear_1567_21779)"/>
<defs>
<linearGradient id="paint0_linear_1567_21779" x1="16.2008" y1="-0.528773" x2="-0.125501" y2="21.3888" gradientUnits="userSpaceOnUse">
<stop stop-color="#2E31B7"/>
<stop offset="1" stop-color="#1C1460"/>
</linearGradient>
<linearGradient id="paint1_linear_1567_21779" x1="10.867" y1="-4.50172" x2="-5.45933" y2="17.4159" gradientUnits="userSpaceOnUse">
<stop stop-color="#2E31B7"/>
<stop offset="1" stop-color="#1C1460"/>
</linearGradient>
<linearGradient id="paint2_linear_1567_21779" x1="20.3994" y1="2.59906" x2="4.07309" y2="24.5166" gradientUnits="userSpaceOnUse">
<stop stop-color="#2E31B7"/>
<stop offset="1" stop-color="#1C1460"/>
</linearGradient>
</defs>
</svg>
