<svg width="20" height="21" viewBox="0 0 20 21" fill="none" xmlns="http://www.w3.org/2000/svg">
<g id="settings-04">
<g id="Solid">
<path d="M11.772 7.99968L2.50033 7.99967C2.04009 7.99967 1.66699 7.62658 1.66699 7.16634C1.66699 6.7061 2.04009 6.33301 2.50033 6.33301L11.772 6.33301C12.142 4.89532 13.4471 3.83301 15.0003 3.83301C16.8413 3.83301 18.3337 5.32539 18.3337 7.16634C18.3337 9.00729 16.8413 10.4997 15.0003 10.4997C13.4471 10.4997 12.142 9.43736 11.772 7.99968Z" fill="url(#paint0_linear_946_62635)"/>
<path d="M5.00033 10.4997C3.15938 10.4997 1.66699 11.9921 1.66699 13.833C1.66699 15.674 3.15938 17.1663 5.00033 17.1663C6.55352 17.1663 7.85861 16.104 8.22864 14.6663L17.5003 14.6663C17.9606 14.6663 18.3337 14.2932 18.3337 13.833C18.3337 13.3728 17.9606 12.9997 17.5003 12.9997L8.22864 12.9997C7.85861 11.562 6.55352 10.4997 5.00033 10.4997Z" fill="url(#paint1_linear_946_62635)"/>
</g>
</g>
<defs>
<linearGradient id="paint0_linear_946_62635" x1="18.2996" y1="3.80602" x2="5.68318" y2="19.7053" gradientUnits="userSpaceOnUse">
<stop stop-color="#2E31B7"/>
<stop offset="1" stop-color="#1C1460"/>
</linearGradient>
<linearGradient id="paint1_linear_946_62635" x1="18.2996" y1="3.80602" x2="5.68318" y2="19.7053" gradientUnits="userSpaceOnUse">
<stop stop-color="#2E31B7"/>
<stop offset="1" stop-color="#1C1460"/>
</linearGradient>
</defs>
</svg>
