<svg width="101" height="118" viewBox="0 0 101 118" fill="none" xmlns="http://www.w3.org/2000/svg">
<path d="M50.4008 118H0.5V56.809C43.2169 54.0416 50.4084 92.0479 50.4008 118Z" fill="white"/>
<path d="M0.5 53.3997V0H67.206C69.6057 0 71.9501 0.25685 74.2142 0.755442C73.662 2.29654 73.1173 3.9006 72.5902 5.57013C55.4411 59.3777 10.6358 55.0994 0.5 53.3997Z" fill="white"/>
<path d="M96.9004 69.5538C99.2047 74.0789 100.5 79.1908 100.5 84.5997C100.5 102.97 81.2449 118 62.9337 118H61.3498C20.9371 37.3242 89.5157 14.462 93.6423 13.1777C97.9471 18.7957 100.497 25.8163 100.497 33.4009C100.497 43.1184 95.0981 51.9067 87.2993 58.0308C91.3029 61.0878 94.6062 65.0287 96.9004 69.5538Z" fill="white"/>
</svg>
